<?xml version="1.0" standalone="no"?>
<!DOCTYPE svg PUBLIC "-//W3C//DTD SVG 20010904//EN"
 "http://www.w3.org/TR/2001/REC-SVG-20010904/DTD/svg10.dtd">
<svg version="1.0" xmlns="http://www.w3.org/2000/svg"
 width="25px" height="25px" viewBox="0 0 493.000000 507.000000"
 preserveAspectRatio="xMidYMid meet">

<g transform="translate(0.000000,507.000000) scale(0.100000,-0.100000)"
fill="#000" stroke="none">
<path d="M3720 4926 c0 -8 23 -41 51 -73 109 -123 182 -260 265 -497 68 -192
84 -275 83 -441 0 -174 -14 -341 -31 -367 -12 -17 -27 -20 -148 -22 -133 -2
-137 -2 -224 -40 -180 -79 -338 -225 -561 -521 -90 -119 -111 -140 -290 -290
-65 -54 -185 -126 -204 -123 -11 2 -19 25 -27 74 -20 121 -53 225 -105 332
-47 97 -69 124 -69 84 0 -36 -49 -143 -101 -219 -82 -121 -188 -220 -289 -272
-83 -42 -181 -81 -205 -81 -41 0 -55 201 -19 275 l19 40 73 1 c76 0 88 5 79
27 -11 29 -154 27 -192 -2 -5 -5 -22 -11 -36 -14 -63 -15 -98 -93 -99 -214 l0
-53 -82 0 c-129 0 -251 -33 -336 -91 l-44 -30 -77 81 c-75 81 -76 81 -140 90
-100 14 -206 -14 -231 -59 -5 -11 -10 -22 -10 -25 0 -12 46 -5 64 9 40 30 150
12 199 -33 23 -21 63 -98 87 -168 17 -50 17 -52 -5 -115 -48 -139 -90 -231
-174 -389 -104 -194 -110 -211 -118 -312 -4 -58 -2 -89 11 -128 9 -29 15 -55
12 -58 -4 -3 -52 -9 -109 -13 -252 -19 -349 -38 -444 -89 -130 -70 -141 -66
183 -73 158 -4 352 -7 432 -7 133 0 150 -2 230 -30 264 -90 547 -97 757 -20
33 12 90 24 127 25 37 2 82 10 100 19 43 19 67 24 65 11 -5 -31 -261 -226
-369 -281 -123 -62 -267 -103 -458 -129 -63 -8 -146 -20 -185 -25 -38 -5 -110
-14 -158 -20 -86 -11 -167 -34 -167 -50 0 -4 12 -13 28 -19 68 -28 150 -39
327 -46 395 -14 661 36 962 180 196 94 285 158 483 351 81 79 136 123 185 149
140 74 253 148 270 175 3 5 13 10 22 10 17 0 16 -6 -6 -160 -5 -30 -7 -57 -5
-59 2 -2 15 1 29 7 60 28 135 203 135 318 0 49 4 56 99 181 119 159 285 406
382 573 50 85 182 241 194 229 3 -3 -15 -60 -41 -125 -81 -210 -144 -453 -144
-558 0 -63 22 -198 41 -246 16 -42 74 -81 125 -84 25 -2 48 -7 52 -10 4 -4 -9
-37 -28 -74 -35 -67 -119 -158 -228 -250 -54 -45 -66 -76 -33 -87 59 -19 191
60 304 180 78 84 209 280 242 363 20 49 15 60 -37 76 -18 6 -34 18 -36 27 -1
8 50 73 115 145 251 276 305 353 349 491 26 81 33 203 13 203 -8 0 -8 4 -1 13
26 31 -4 243 -53 373 -33 88 -114 240 -163 307 -22 29 -75 86 -119 127 l-79
75 8 100 c4 55 9 177 10 270 2 157 0 178 -25 272 -28 106 -67 222 -94 283 -98
218 -212 401 -310 498 -60 59 -103 79 -103 48z m542 -1703 c2 -14 12 -17 43
-15 31 3 45 -2 59 -17 11 -12 26 -21 34 -21 9 0 12 -3 9 -7 -4 -3 2 -13 13
-20 11 -8 27 -31 35 -50 9 -20 24 -43 35 -50 11 -8 20 -20 20 -28 0 -7 5 -15
11 -17 14 -5 23 -88 9 -88 -6 0 -3 -11 7 -24 10 -13 20 -23 23 -21 3 2 5 -8 5
-21 0 -13 -3 -24 -7 -24 -5 0 -8 5 -8 12 0 6 -3 8 -7 5 -3 -4 2 -17 13 -28 12
-14 15 -23 8 -26 -6 -2 -9 -15 -6 -29 3 -18 9 -23 22 -19 28 9 34 -13 8 -25
-27 -13 -39 -74 -13 -63 8 3 15 11 15 19 0 8 5 14 10 14 18 0 11 -28 -11 -43
l-21 -15 21 -7 c12 -3 19 -10 16 -15 -3 -5 0 -12 7 -17 15 -9 17 -35 3 -45 -5
-4 -13 -2 -17 5 -11 17 -10 29 2 22 6 -3 10 -1 10 4 0 6 -7 11 -15 11 -8 0
-15 -8 -15 -18 0 -11 -9 -27 -20 -37 -13 -12 -17 -23 -12 -34 9 -18 8 -87 -2
-126 l-6 -25 -28 28 c-15 15 -35 28 -44 28 -26 2 -22 -14 5 -18 12 -2 21 -9
19 -16 -1 -8 2 -11 7 -7 6 3 15 -3 21 -14 7 -14 7 -22 -1 -26 -6 -4 -8 -13 -6
-20 3 -6 -5 -24 -18 -39 -13 -15 -25 -22 -27 -15 -2 6 -9 0 -16 -15 -10 -22
-9 -26 3 -26 20 0 19 -12 -4 -32 -18 -15 -21 -15 -37 3 -9 10 -13 19 -7 19 5
0 8 14 5 30 -2 17 -10 30 -18 30 -22 0 -16 16 6 17 11 1 20 -2 20 -7 0 -5 11
-4 25 2 28 13 34 32 8 24 -23 -7 -47 8 -41 25 3 8 1 22 -4 32 -6 12 -5 17 6
17 10 0 13 6 10 15 -4 8 -10 12 -15 9 -11 -6 -11 -1 -3 20 3 9 10 14 14 11 4
-3 8 11 7 30 -1 19 -4 35 -9 35 -11 0 -38 56 -31 64 4 3 -5 6 -18 6 -23 1 -23
1 -5 15 18 14 18 15 2 15 -9 0 -14 5 -11 10 3 6 17 10 30 10 13 0 27 5 30 10
4 6 11 7 17 4 6 -4 5 2 -1 15 -7 12 -9 26 -5 32 4 6 0 15 -7 20 -19 12 -32 11
-24 -1 9 -15 -4 -12 -21 5 -14 13 -11 19 7 17 10 -2 -2 37 -12 44 -5 3 -9 15
-9 27 0 14 -11 29 -29 40 -22 13 -28 22 -24 40 l6 22 -19 -21 c-16 -18 -21
-19 -32 -8 -15 16 -16 34 -2 34 6 0 11 -8 11 -17 1 -17 2 -17 6 0 2 9 8 17 13
17 4 0 6 9 3 20 -3 11 -12 20 -19 20 -13 0 -37 40 -39 65 0 6 -4 16 -9 23 -5
9 -1 18 10 27 13 10 15 14 5 15 -10 0 -12 8 -7 31 3 18 1 38 -5 45 -9 11 -8
14 5 14 19 0 22 40 4 59 -11 11 -10 12 1 6 10 -6 12 -2 6 14 -3 12 -2 21 4 21
5 0 11 -8 13 -17z m28 7 c0 -5 -4 -10 -10 -10 -5 0 -10 5 -10 10 0 6 5 10 10
10 6 0 10 -4 10 -10z m-77 -252 c-11 -13 -23 -30 -26 -38 -4 -12 -6 -11 -6 3
-1 27 18 57 36 57 14 0 13 -3 -4 -22z m33 -76 c-9 -8 -26 10 -26 26 1 15 2 15
15 -2 8 -11 13 -21 11 -24z m338 -21 c-5 -6 -34 20 -34 30 0 5 8 1 18 -8 10
-10 17 -20 16 -22z m46 -117 c0 -8 -4 -12 -10 -9 -5 3 -10 10 -10 16 0 5 5 9
10 9 6 0 10 -7 10 -16z m-370 2 c0 -2 -7 -9 -15 -16 -13 -11 -14 -10 -9 4 5
14 24 23 24 12z m130 -118 c0 -5 5 -6 12 -2 7 4 8 3 4 -4 -8 -14 -33 -5 -40
13 -3 9 0 12 10 8 7 -3 14 -9 14 -15z m200 -161 c0 -20 0 -20 -14 -2 -8 11
-12 23 -9 28 8 13 23 -3 23 -26z m-240 1 c0 -16 -3 -19 -11 -11 -6 6 -8 16 -5
22 11 17 16 13 16 -11z m230 -88 c0 -5 -4 -10 -10 -10 -5 0 -10 5 -10 10 0 6
5 10 10 10 6 0 10 -4 10 -10z m-2427 -287 c-3 -7 0 -13 6 -13 6 0 11 6 12 13
0 6 5 1 10 -13 11 -30 52 -53 68 -37 8 8 15 5 26 -9 17 -22 19 -44 5 -44 -5 0
-10 4 -10 8 0 5 -7 9 -15 9 -13 0 -13 -3 1 -18 15 -17 14 -20 -14 -46 -41 -38
-67 -101 -49 -117 11 -9 12 -15 2 -34 -15 -29 -29 -13 -30 33 0 17 -5 29 -12
28 -6 -1 -17 5 -25 14 -7 9 -8 14 -2 10 8 -4 11 4 10 26 -1 21 -7 32 -16 32
-9 0 -14 8 -12 19 2 9 -4 28 -13 42 -8 13 -11 24 -5 24 6 0 15 12 20 26 9 23
12 25 28 13 15 -13 16 -12 3 4 -7 9 -20 17 -29 17 -13 0 -12 3 3 20 10 11 15
20 11 20 -4 0 -4 5 -1 11 9 14 34 -21 28 -38z m-289 -65 l28 -15 -57 -32 c-76
-43 -87 -38 -71 32 18 77 24 84 50 54 11 -14 34 -32 50 -39z m120 37 c-4 -8
-11 -15 -16 -15 -6 0 -5 6 2 15 7 8 14 15 16 15 2 0 1 -7 -2 -15z m100 -74
c10 -10 13 -21 8 -24 -8 -5 -42 26 -42 38 0 11 18 4 34 -14z m-866 -49 c2 -30
11 -50 33 -72 27 -27 28 -30 10 -30 -11 0 -36 15 -55 34 -28 26 -36 41 -36 69
0 33 12 48 35 43 6 -1 11 -21 13 -44z m1059 -40 c0 -10 -7 -19 -14 -19 -17 0
-17 24 0 30 6 3 13 6 14 6 1 1 1 -7 0 -17z m-529 -59 c17 -23 15 -50 -4 -57
-27 -11 -54 -7 -60 9 -7 17 -34 20 -34 4 0 -8 -5 -8 -15 1 -20 16 -19 35 2 55
20 21 91 13 111 -12z m-158 3 c0 -11 -19 -15 -25 -6 -3 5 1 10 9 10 9 0 16 -2
16 -4z m126 -171 c14 -13 13 -15 -5 -15 -21 0 -35 13 -24 24 9 9 13 8 29 -9z
m84 -299 c0 -3 -4 -8 -10 -11 -5 -3 -10 -1 -10 4 0 6 5 11 10 11 6 0 10 -2 10
-4z"/>
<path d="M4449 2589 c-11 -7 -11 -9 3 -9 9 0 18 -4 20 -10 2 -5 8 -6 15 -2 9
6 7 11 -6 19 -11 7 -23 8 -32 2z"/>
<path d="M2140 2040 c0 -5 5 -10 11 -10 5 0 7 5 4 10 -3 6 -8 10 -11 10 -2 0
-4 -4 -4 -10z"/>
<path d="M2200 1999 c0 -5 5 -7 10 -4 6 3 10 8 10 11 0 2 -4 4 -10 4 -5 0 -10
-5 -10 -11z"/>
</g>
</svg>
